HIERARCHY
ROOT Hips
{
	OFFSET -1.602300 6.242603 43.997101
	CHANNELS 6 Xposition Yposition Zposition Zrotation Xrotation Yrotation
	JOINT Chest
	{
		OFFSET -0.204900 1.598101 7.917301
		CHANNELS 6 Xposition Yposition Zposition Zrotation Xrotation Yrotation
		JOINT Chest2
		{
			OFFSET 0.000000 0.000000 3.404099
			CHANNELS 6 Xposition Yposition Zposition Zrotation Xrotation Yrotation
			JOINT Neck
			{
				OFFSET 0.000000 0.000000 7.928600
				CHANNELS 6 Xposition Yposition Zposition Zrotation Xrotation Yrotation
				JOINT Head
				{
					OFFSET 0.000000 0.000000 2.173897
					CHANNELS 6 Xposition Yposition Zposition Zrotation Xrotation Yrotation
					End Site
					{
						OFFSET 0.000000 0.000001 10.404503
					}
				}
			}
			JOINT LeftCollar
			{
				OFFSET 2.833800 -1.396299 4.843300
				CHANNELS 6 Xposition Yposition Zposition Zrotation Xrotation Yrotation
				JOINT LeftShoulder
				{
					OFFSET 4.363600 0.000000 0.000000
					CHANNELS 6 Xposition Yposition Zposition Zrotation Xrotation Yrotation
					JOINT LeftElbow
					{
						OFFSET 0.000000 -0.000001 -10.306900
						CHANNELS 6 Xposition Yposition Zposition Zrotation Xrotation Yrotation
						JOINT LeftWrist
						{
							OFFSET 0.000000 -0.000001 -12.404900
							CHANNELS 6 Xposition Yposition Zposition Zrotation Xrotation Yrotation
							End Site
							{
								OFFSET 0.000000 0.000000 -2.173901
							}
						}
					}
				}
			}
			JOINT RightCollar
			{
				OFFSET -2.354800 -1.897200 5.063099
				CHANNELS 6 Xposition Yposition Zposition Zrotation Xrotation Yrotation
				JOINT RightShoulder
				{
					OFFSET -4.375800 0.000000 0.000000
					CHANNELS 6 Xposition Yposition Zposition Zrotation Xrotation Yrotation
					JOINT RightElbow
					{
						OFFSET 0.000000 -0.000001 -10.005001
						CHANNELS 6 Xposition Yposition Zposition Zrotation Xrotation Yrotation
						JOINT RightWrist
						{
							OFFSET 0.000000 -0.000001 -13.174900
							CHANNELS 6 Xposition Yposition Zposition Zrotation Xrotation Yrotation
							End Site
							{
								OFFSET 0.000000 0.000000 -2.173901
							}
						}
					}
				}
			}
		}
	}
	JOINT LeftHip
	{
		OFFSET 2.240600 0.386800 -2.614101
		CHANNELS 6 Xposition Yposition Zposition Zrotation Xrotation Yrotation
		JOINT LeftKnee
		{
			OFFSET 0.000000 -0.000001 -18.592899
			CHANNELS 6 Xposition Yposition Zposition Zrotation Xrotation Yrotation
			JOINT LeftAnkle
			{
				OFFSET 0.000000 -0.000001 -18.765800
				CHANNELS 6 Xposition Yposition Zposition Zrotation Xrotation Yrotation
				End Site
				{
					OFFSET 0.000000 -8.655000 0.000000
				}
			}
		}
	}
	JOINT RightHip
	{
		OFFSET -2.014900 -0.220900 -2.615898
		CHANNELS 6 Xposition Yposition Zposition Zrotation Xrotation Yrotation
		JOINT RightKnee
		{
			OFFSET 0.000000 -0.000001 -18.633900
			CHANNELS 6 Xposition Yposition Zposition Zrotation Xrotation Yrotation
			JOINT RightAnkle
			{
				OFFSET 0.000000 -0.000001 -18.285101
				CHANNELS 6 Xposition Yposition Zposition Zrotation Xrotation Yrotation
				End Site
				{
					OFFSET 0.000000 -7.524500 0.000000
				}
			}
		}
	}
}
MOTION
Frames: 4
Frame Time: 0.041667
-6.825401 24.744101 8.135506 13.098787 14.155078 -18.172266 -0.204901 1.598100 7.917304 21.317589 6.174987 -6.910207 0.000001 0.000004 3.404097 -2.833078 -15.418493 -1.287481 0.000002 -0.000001 7.928607 -46.721656 -18.590178 30.444151 0.000001 0.000001 2.173898 -6.144951 -1.921185 -5.136861 2.833802 -1.396299 4.843307 4.280031 10.712932 15.140088 4.363587 0.000000 0.000000 -2.695959 21.416543 -91.203004 0.000002 0.000006 -10.306895 578.442164 -147.189129 563.543281 0.000006 0.000001 -12.404894 55.038088 358.309811 -337.741270 -2.354800 -1.897200 5.063103 10.645647 9.671423 -4.026537 -4.375797 0.000008 -0.000004 66.041980 -10.097035 98.199392 -0.000004 0.000003 -10.004998 -568.038857 -144.664185 -578.765095 -0.000007 0.000005 -13.174899 -197.461302 -154.474372 136.969062 2.240598 0.386804 -2.614101 132.293907 -28.950559 98.881175 -0.000003 -0.000001 -18.592897 -169.163159 58.632646 198.388896 0.000002 0.000001 -18.765799 -34.133426 21.355006 -4.296119 -2.014897 -0.220896 -2.615900 -127.998114 -11.981936 -118.266406 -0.000001 0.000002 -18.633883 180.006070 24.492085 -175.236358 -0.000006 -0.000004 -18.285084 -20.763041 31.232266 -202.124490
-6.829002 24.749901 8.135506 13.093652 14.129384 -18.101275 -0.204900 1.598103 7.917310 21.277965 6.165661 -6.965072 0.000001 0.000002 3.404098 -2.832000 -15.398356 -1.285614 0.000003 0.000000 7.928602 -46.693407 -18.561372 30.357008 -0.000001 0.000003 2.173908 -6.202832 -1.959645 -5.101086 2.833804 -1.396299 4.843307 4.313867 10.703105 15.071478 4.363595 0.000001 -0.000002 -2.718684 21.339896 -91.089185 0.000001 0.000008 -10.306899 578.340858 -147.129829 563.490552 0.000000 0.000001 -12.404894 55.008148 358.342214 -337.739467 -2.354802 -1.897199 5.063104 10.689159 9.682821 -4.033523 -4.375796 0.000008 -0.000006 66.061576 -10.220004 98.275870 -0.000006 0.000005 -10.004998 -568.109017 -144.811144 -578.844435 -0.000006 0.000003 -13.174899 -197.340872 -154.378545 137.003445 2.240598 0.386802 -2.614103 132.306884 -29.022351 98.927415 -0.000003 -0.000002 -18.592894 -169.183991 58.651606 198.408171 0.000001 0.000000 -18.765799 -34.149723 21.362665 -4.239393 -2.014898 -0.220895 -2.615900 -127.985656 -11.986449 -118.189443 -0.000001 0.000001 -18.633884 179.968873 24.519524 -175.233462 -0.000006 -0.000005 -18.285084 -20.766654 31.237604 -202.122783
-6.832402 24.756104 8.134907 13.092066 14.092606 -18.029794 -0.204901 1.598102 7.917302 21.259316 6.153634 -7.033319 0.000001 -0.000003 3.404102 -2.847612 -15.360899 -1.282570 0.000006 -0.000002 7.928598 -46.664382 -18.536222 30.281517 -0.000001 -0.000001 2.173905 -6.276316 -2.012881 -5.051468 2.833800 -1.396300 4.843300 4.311876 10.329997 14.681005 4.363594 -0.000000 -0.000002 -2.779088 21.532154 -90.577153 0.000001 0.000002 -10.306904 578.182180 -147.052743 563.415857 0.000003 0.000005 -12.404887 55.004422 358.367622 -337.756515 -2.354799 -1.897201 5.063100 10.768072 9.701788 -3.972400 -4.375793 0.000009 -0.000003 66.029105 -10.449022 98.340538 -0.000002 0.000001 -10.004995 -568.185078 -144.975027 -578.957324 -0.000004 0.000005 -13.174898 -197.174447 -154.277485 137.035055 2.240598 0.386802 -2.614103 132.313974 -29.077075 98.967638 -0.000003 -0.000000 -18.592890 -169.230750 58.668593 198.430546 0.000001 -0.000000 -18.765799 -34.168411 21.377797 -4.172405 -2.014895 -0.220897 -2.615901 -127.978484 -11.997390 -118.112153 -0.000000 0.000001 -18.633884 179.936689 24.546248 -175.234937 -0.000006 -0.000005 -18.285084 -20.763659 31.242453 -202.126376
-6.835201 24.762699 8.133808 13.098093 14.047039 -17.963261 -0.204900 1.598102 7.917304 21.260388 6.135413 -7.106925 -0.000001 0.000000 3.404103 -2.878694 -15.310617 -1.278678 0.000004 0.000001 7.928599 -46.636620 -18.512864 30.220373 -0.000001 0.000000 2.173898 -6.364639 -2.072739 -4.996736 2.833800 -1.396299 4.843304 4.305368 10.320180 14.615739 4.363598 0.000000 -0.000004 -2.839356 21.367067 -90.431199 -0.000001 0.000005 -10.306894 578.000278 -146.999796 563.338922 0.000003 0.000004 -12.404896 55.041616 358.351858 -337.793508 -2.354802 -1.897199 5.063103 10.836454 9.703137 -3.847589 -4.375797 0.000010 -0.000005 65.967777 -10.754551 98.361909 -0.000004 0.000005 -10.004995 -568.240047 -145.109882 -579.069995 -0.000005 0.000003 -13.174900 -197.008446 -154.193365 137.052404 2.240597 0.386802 -2.614105 132.311132 -29.109542 99.002001 -0.000002 -0.000000 -18.592896 -169.304270 58.685696 198.456392 0.000002 0.000000 -18.765799 -34.191971 21.400680 -4.087254 -2.014897 -0.220896 -2.615902 -127.980738 -12.012710 -118.039889 -0.000001 0.000001 -18.633883 179.911117 24.570543 -175.240278 -0.000006 -0.000005 -18.285084 -20.755089 31.246630 -202.134121
